<svg xmlns="http://www.w3.org/2000/svg" xmlns:xlink="http://www.w3.org/1999/xlink" width="24" height="24" viewBox="0 0 24 24">
    <defs>
        <path id="a" d="M1 0h7.75L14 6v8a1 1 0 0 1-1 1H1a1 1 0 0 1-1-1V1a1 1 0 0 1 1-1z"/>
    </defs>
    <g fill="none" fill-rule="evenodd">
        <path fill="#E3E3E3" stroke="#979797" d="M19.5 19.187L6.772 4.5H3a.5.5 0 0 0-.5.5v17a.5.5 0 0 0 .5.5h16a.5.5 0 0 0 .5-.5v-2.813z"/>
        <path fill="#FFF" stroke="#979797" d="M22.5 9.192L15.577 1.5H6a.5.5 0 0 0-.5.5v17a.5.5 0 0 0 .5.5h16a.5.5 0 0 0 .5-.5V9.192z"/>
        <g transform="translate(7 3)">
            <mask id="b" fill="#fff">
                <use xlink:href="#a"/>
            </mask>
            <use fill="#EBEBEB" xlink:href="#a"/>
            <path fill="#898989" d="M5 10V7h3.89v3H12l-5 5-5-5h3z" mask="url(#b)"/>
            <path fill="#FFF" d="M7 0h7v7H7z" mask="url(#b)"/>
            <path fill="#BEBEBE" d="M7 0l7 7H7z" mask="url(#b)"/>
        </g>
    </g>
</svg>
