<svg xmlns="http://www.w3.org/2000/svg" width="24" height="24" viewBox="0 0 24 24">
    <g fill="none" fill-rule="evenodd">
        <rect width="19" height="11" x="2.5" y="2.5" fill="#FFF" stroke="#979797" rx="1"/>
        <path fill="#E7E7E7" d="M4 4h16v8H4z"/>
        <path fill="#007FA3" d="M14.3 13.61c-.17-.07-.35-.11-.54-.11H13v-6c0-.83-.67-1.5-1.5-1.5S10 6.67 10 7.5v10.74l-3.43-.72c-.08-.01-.15-.03-.24-.03-.31 0-.59.13-.79.33l-.79.8 4.94 4.94c.27.27.65.44 1.06.44h6.79c.75 0 1.33-.55 1.44-1.28l.75-5.27c.01-.07.02-.14.02-.2 0-.62-.38-1.16-.91-1.38l-4.54-2.26z"/>
        <path fill="#ED7600" d="M9 7.5a2.5 2.5 0 0 1 5 0v3.74c1.21-.81 2-2.18 2-3.74C16 5.01 13.99 3 11.5 3S7 5.01 7 7.5c0 1.56.79 2.93 2 3.74V7.5z"/>
    </g>
</svg>
