<?xml version="1.0" encoding="UTF-8"?>
<svg width="100px" height="30px" viewBox="0 0 100 30" version="1.1" xmlns="http://www.w3.org/2000/svg" xmlns:xlink="http://www.w3.org/1999/xlink">
    <!-- Generator: Sketch 51 (57462) - http://www.bohemiancoding.com/sketch -->
    <title>PearsonLogo_Horizontal_Blk_RGB</title>
    <desc>Created with Sketch.</desc>
    <defs></defs>
    <g id="Symbols" stroke="none" stroke-width="1" fill="none" fill-rule="evenodd">
        <g id="Header/integration_mobile" transform="translate(-15.000000, -15.000000)">
            <g id="integration_mode_mobile">
                <g id="PearsonLogo_Horizontal_Blk_RGB" transform="translate(15.000000, 15.000000)">
                    <path d="M58.9307944,19.6613551 C58.6952804,19.9879907 57.9266355,20.963271 56.9704206,20.963271 C55.6773364,20.963271 55.4059346,20.0555607 55.4059346,19.2943458 C55.4059346,18.0423364 56.3643925,17.4633645 58.9307944,16.8295794 L58.9307944,19.6613551 Z M62.1257944,21.1948598 C62.0885047,21.0977103 61.9875701,21.0424766 61.8883178,21.0658879 L61.8569159,21.0738785 C61.5621028,21.1378037 61.3352804,21.1198598 61.1763084,21.0126168 C60.951028,20.8598131 60.8412617,20.5157944 60.8412617,19.9609346 L60.8412617,14.9419626 C60.8412617,12.9815888 59.672243,11.9876636 57.3663084,11.9876636 C55.3009346,11.9876636 53.6830374,12.9651869 53.6830374,14.2131308 C53.6830374,14.8547664 54.0738785,15.3185047 54.6513084,15.3881776 C55.0285514,15.4335981 55.388271,15.2628505 55.6497196,14.9871028 C56.1574766,14.4511682 56.0915888,13.8141589 55.476028,13.1299065 C55.8400935,12.7488785 56.4849533,12.5234579 57.220514,12.5234579 C58.4192523,12.5234579 58.9307944,13.2343458 58.9307944,14.9004673 L58.9307944,16.1687383 C58.6497196,16.2556542 58.386729,16.3379439 57.9057477,16.4507944 C56.9352336,16.6785981 55.6037383,16.9818224 54.5994393,17.5368224 C53.7703738,17.9911682 53.3499533,18.7086449 53.3499533,19.669486 C53.3499533,20.7151402 54.0363084,21.9363084 55.9708879,21.9363084 C57.0541121,21.9363084 58.0249065,21.422243 59.0210748,20.3202336 C59.1068692,21.4657009 59.541028,21.8948131 60.5941121,21.8948131 C61.1003271,21.8948131 61.5054673,21.7767757 61.9870093,21.543785 C62.1175234,21.4807009 62.1796262,21.3292991 62.1257944,21.1948598 L62.1257944,21.1948598 Z" id="Fill-1" fill="#000000"></path>
                    <path d="M83.6170093,12.4609346 C82.4325701,12.4609346 81.0733178,12.9702336 81.0733178,16.9413084 C81.0733178,19.9700467 81.9665888,21.4421495 83.8042991,21.4421495 C85.5632243,21.4421495 86.3475701,20.0540187 86.3475701,16.9413084 C86.3475701,13.9263084 85.4544393,12.4609346 83.6170093,12.4609346 Z M83.7207477,21.9782243 C80.9799533,21.9782243 78.9130374,19.8307009 78.9130374,16.9828037 C78.9130374,14.1939252 81.0699533,11.9251402 83.7207477,11.9251402 C86.4051869,11.9251402 88.5079907,14.1099533 88.5079907,16.8995327 C88.5079907,20.0363551 86.0231776,21.9782243 83.7207477,21.9782243 L83.7207477,21.9782243 Z" id="Fill-2" fill="#000000"></path>
                    <path d="M36.3266355,19.9609346 L36.3266355,16.3300935 L37.7244393,16.3300935 C39.8102804,16.3300935 41.3970561,15.8886449 42.441028,15.0178037 C43.5319626,14.1075701 43.7608879,12.9542523 43.7608879,12.1471963 C43.7608879,8.82728972 40.5576168,8.13056075 37.8702336,8.13056075 L37.8811682,8.13028037 L32.4304206,8.13028037 C32.3070561,8.13028037 32.2066822,8.23065421 32.2066822,8.35401869 L32.2066822,8.3688785 L32.2065421,8.36411215 C32.2065421,8.47808411 32.2760748,8.57957944 32.3830374,8.61883178 C32.8685047,8.79728972 34.187243,8.54607477 34.187243,9.96042056 L34.1873832,19.958972 C34.1873832,20.6862617 33.8648131,21.1993458 32.3904673,21.3385514 C32.2736916,21.3497664 32.1853738,21.445514 32.1853738,21.5611682 L32.1853738,21.595514 C32.1853738,21.7188785 32.2857477,21.8192523 32.4091121,21.8192523 L38.2324766,21.8192523 C38.3557009,21.8192523 38.456215,21.7188785 38.456215,21.595514 L38.456215,21.5649533 C38.456215,21.4492991 38.3645327,21.3514486 38.247757,21.3423364 C36.6461215,21.2142056 36.3245327,20.7179439 36.3245327,19.958972 L36.3245327,16.3364019 M41.3507944,12.1054206 C41.3507944,14.4154206 40.7814953,15.6880374 37.8702336,15.6880374 L36.3266355,15.6880374 L36.3266355,8.70813084 L37.9328972,8.70813084 C40.9446729,8.70813084 41.3507944,10.4254206 41.3507944,12.1054206" id="Fill-3" fill="#000000"></path>
                    <path d="M45.7230841,15.6951869 C45.9354673,13.613972 46.7477103,12.4731308 48.023271,12.4731308 C48.6618224,12.4731308 49.1349533,12.6497664 49.4695794,13.0134112 C49.9293925,13.5128972 50.1236916,14.415 50.0472897,15.6951869 L45.7230841,15.6951869 Z M48.1686449,11.9202336 C45.633785,11.9202336 43.5716355,14.2153738 43.5716355,17.0364953 C43.5716355,19.8923832 45.5050935,21.9653271 48.1686449,21.9653271 C50.4070093,21.9653271 51.4959813,20.6280841 52.1203738,19.6221028 C52.1819159,19.523271 52.155,19.3920561 52.0592523,19.3235047 L52.0298131,19.3026168 C51.9332243,19.233785 51.798785,19.2529907 51.7243458,19.3469159 C50.9011682,20.3786916 50.181028,20.976028 48.9370093,20.976028 C47.3635514,20.976028 45.6825701,19.8919626 45.6825701,16.849486 L45.6825701,16.8269159 C45.6799065,16.6924766 45.6831308,16.508271 45.6880374,16.3364019 L52.1254206,16.3364019 C52.1430841,16.3364019 52.1575234,16.3226636 52.158785,16.3052804 L52.1624299,16.2535514 C52.253271,15.0054673 51.9002804,13.8848131 51.1686449,13.0975234 C50.4525701,12.3273364 49.4150467,11.9202336 48.1686449,11.9202336 L48.1686449,11.9202336 Z" id="Fill-4" fill="#000000"></path>
                    <path d="M74.8508411,15.807757 C74.8502804,15.8074766 74.8495794,15.8074766 74.8488785,15.8073364 C73.0884112,15.3135981 72.4024766,14.8136916 72.4024766,14.0247196 C72.4024766,13.1255607 73.1161682,12.4731308 74.0992991,12.4731308 C75.2559813,12.4731308 75.7512617,13.0258879 76.9721495,15.0671495 L76.9884112,15.0943458 C76.9942991,15.1045794 77.0053738,15.111028 77.0171495,15.111028 L77.1846729,15.111028 C77.3078972,15.111028 77.4084112,15.010514 77.4084112,14.8872897 L77.4084112,11.9538785 C77.4084112,11.9352336 77.393271,11.9202336 77.3747664,11.9202336 L77.1538318,11.9202336 C77.0865421,11.9202336 77.0234579,11.9500935 76.9809813,12.0021028 L76.5912617,12.4763551 C76.0992056,12.2050935 75.2981776,11.9202336 74.4942056,11.9202336 C72.4724299,11.9202336 71.0601869,13.1698598 71.0601869,14.9592056 C71.0601869,16.6385047 72.1736916,17.2679439 74.0964953,17.7871963 C75.9647664,18.2985981 76.6268692,18.8306075 76.6268692,19.819486 C76.6268692,20.9181308 75.5618692,21.4124299 74.8057009,21.4124299 C73.3992056,21.4124299 72.8043925,20.8895327 71.4564953,18.4676636 L71.440514,18.438785 C71.4346262,18.4281308 71.4234112,18.4214019 71.411215,18.4214019 L71.2425701,18.4214019 C71.1192056,18.4214019 71.0188318,18.5217757 71.0188318,18.6451402 L71.0188318,21.9316822 C71.0188318,21.9501869 71.0338318,21.9653271 71.0523364,21.9653271 L71.2811215,21.9653271 C71.3401402,21.9653271 71.397757,21.941215 71.4393925,21.8998598 L72.0556542,21.2833178 C72.7770561,21.7310748 73.8556542,21.9653271 74.5564486,21.9653271 C75.6081308,21.9653271 76.4728037,21.632243 77.0571028,21.0018224 C77.5780374,20.4400935 77.865,19.643972 77.865,18.7600935 C77.865,17.2295327 77.0479907,16.4292056 74.8508411,15.807757" id="Fill-5" fill="#000000"></path>
                    <path d="M64.1980374,20.6392991 C64.1980374,21.1460748 64.0692056,21.3119159 63.2628505,21.3628037 C63.1457944,21.3702336 63.053972,21.4679439 63.053972,21.5857009 C63.053972,21.708785 63.1540654,21.8090187 63.2772897,21.8090187 L67.2611215,21.8090187 C67.382243,21.8090187 67.4809346,21.7103271 67.4809346,21.5893458 C67.4809346,21.4699065 67.3878505,21.3719159 67.268972,21.366028 C66.3468224,21.321729 66.1082243,21.1724299 66.1082243,20.6391589 L66.1082243,14.7975701 C66.7637383,13.7071963 67.2353271,13.1364953 68.0307477,12.9639252 C67.9921963,13.101729 67.9669626,13.2670093 67.9669626,13.401028 C67.9669626,14.1106542 68.4628037,14.6060748 69.1724299,14.6060748 C69.8695794,14.6060748 70.3565888,14.1106542 70.3565888,13.401028 C70.3565888,12.7296729 69.9374299,11.9458879 68.7559346,11.9458879 C67.787243,11.9458879 66.8614486,12.5011682 66.066729,13.8298598 L66.066729,12.3271963 C66.066729,12.1741121 65.9404206,12.051028 65.7873364,12.0549533 L63.2771495,12.1219626 C63.1556075,12.1254673 63.0604206,12.2231776 63.0604206,12.3447196 L63.0604206,12.377243 C63.0604206,12.4872897 63.1406075,12.5817757 63.2465888,12.5966355 C64.0833645,12.7153738 64.1987383,13.1135047 64.1981776,13.5257944 L64.1980374,20.6392991" id="Fill-6" fill="#000000"></path>
                    <path d="M91.7495327,12.0483645 C91.8075701,12.0483645 91.8625234,12.0706542 91.9044393,12.1111682 C91.9481776,12.1533645 91.9724299,12.2101402 91.9728505,12.2707009 L91.9818224,13.9371028 C91.9818224,13.9371028 92.7992523,11.9826168 95.4528505,11.9826168 L95.4761215,11.9826168 C97.1301869,11.9826168 98.0788318,13.0373832 98.0788318,14.8760748 L98.0788318,20.6296262 C98.0788318,21.1366822 98.2076636,21.3025234 99.0137383,21.3531308 C99.1309346,21.3604206 99.2228972,21.4581308 99.2228972,21.576028 C99.2228972,21.698972 99.1226636,21.7992056 98.9995794,21.7992056 L95.4207477,21.7992056 C95.2973832,21.7992056 95.1970093,21.6986916 95.1970093,21.5754673 C95.1970093,21.456028 95.286729,21.3584579 95.4011215,21.3486449 C96.0511682,21.2931308 96.1550467,21.1288318 96.1550467,20.6296262 L96.1550467,15.4371028 C96.1550467,13.7226168 95.6676168,13.0549065 94.4165888,13.0549065 C93.5714019,13.0549065 92.8788785,13.7929907 92.4469626,14.4120561 C92.4469626,14.4120561 92.2264486,14.688785 91.9871495,15.2090187 L92.0136449,20.6293458 C92.0136449,21.1277103 92.1147196,21.2918692 92.7464019,21.3479439 C92.8603738,21.3580374 92.9498131,21.4556075 92.9498131,21.5701402 C92.9498131,21.6986916 92.8494393,21.7992056 92.7263551,21.7992056 L89.1695327,21.7992056 C89.0464486,21.7992056 88.946215,21.698972 88.946215,21.5758879 C88.946215,21.4581308 89.0380374,21.3604206 89.1550935,21.3529907 C89.9614486,21.3021028 90.0902804,21.1362617 90.0902804,20.6296262 L90.0902804,13.5271963 C90.0902804,13.1126636 89.9743458,12.7124299 89.1332243,12.5931308 C89.0268224,12.5779907 88.946215,12.4832243 88.946215,12.3726168 L88.946215,12.3398131 C88.946215,12.2178505 89.0421028,12.1195794 89.1640654,12.1160748 L91.7495327,12.0483645" id="Fill-7" fill="#000000"></path>
                    <path d="M21.3972897,2.04953271 C27.7054206,5.64336449 29.1737383,13.7027103 24.7847664,21.8561215 C20.9273832,29.0235981 12.5046729,32.0847196 6.22878505,28.4356542 C-0.0485046729,24.786028 -1.27345794,14.6049533 1.42401869,8.74598131 C5.34084112,0.238598131 14.4276168,-1.92238318 21.3972897,2.04953271" id="Fill-8" fill="#007FA3"></path>
                    <path d="M13.2765421,23.2853271 C13.084486,23.1356075 12.8685981,23.0328505 12.6513084,22.9892523 C12.5772897,22.9749533 12.5013084,22.9668224 12.4263084,22.9668224 C12.0159813,22.9668224 11.613785,23.1926636 11.3506542,23.5720093 C11.1308411,23.8870093 11.0409813,24.2634112 11.0992991,24.6288785 C11.1361682,24.8613084 11.2235047,25.0634579 11.3521963,25.2141589 C11.496729,25.384486 11.7179439,25.5145794 11.9920093,25.5926636 C12.1505607,25.6366822 12.3133178,25.6599533 12.4756542,25.6599533 L12.4760748,25.6599533 C12.8300467,25.6599533 13.1485514,25.5538318 13.3959813,25.3529439 C13.683785,25.1186916 13.840514,24.7843458 13.8370093,24.4121495 C13.833785,23.9778505 13.6242056,23.556028 13.2765421,23.2853271 M21.2509346,8.23303738 C22.4857009,9.55135514 22.8702336,11.5519626 22.6554673,13.1925701 C22.4101402,15.0635047 21.2763084,16.7946729 19.3900935,17.9425234 C17.8941589,18.852757 15.9291589,19.2159813 13.9955607,19.2332243 C13.9801402,19.5398131 13.9188785,20.5958411 13.8880374,20.7629439 C13.8426168,21.0092523 13.7564019,21.1421495 13.6508411,21.2800935 C13.4432243,21.5506542 13.0829439,21.7254673 12.7251869,21.8273832 C12.4407477,21.908271 12.1595327,21.9430374 11.9600467,21.9430374 C11.9262617,21.9430374 11.8933178,21.941215 11.8610748,21.9371495 C11.6507944,21.9133178 11.4173832,21.814486 11.2729907,21.6534112 C11.1288785,21.4923364 11.0471495,21.2886449 11.0280841,21.0578972 L11.0119626,20.8494393 C10.971028,20.6698598 10.7470093,11.5788785 10.7904673,11.7406542 C10.8228505,10.6514019 12.5814953,10.4613084 13.5357477,10.6536449 C14.4919626,10.8464019 14.2498598,12.008271 14.2240654,13.4363551 C14.2240654,13.4363551 14.1786449,15.3144393 14.0904673,17.2989252 C15.3077103,17.2512617 16.2748598,16.9042991 17.1800467,16.4545794 C19.0080841,15.5484112 19.9756542,14.1584579 19.9756542,12.1111682 C19.9756542,10.0638785 17.9824766,7.7711215 14.3057944,7.7711215 C10.6292523,7.7711215 9.05102804,8.69845794 7.27079439,10.1714019 C6.86943925,10.5033645 6.5603271,10.8379907 6.2678972,11.0582243 C5.97560748,11.2785981 5.19925234,11.312243 4.99107477,10.7967757 C4.74028037,10.1753271 5.20892523,9.48252336 5.48425234,9.14733645 C5.91658879,8.62107477 6.98313084,7.5611215 8.16504673,6.94528037 C9.51883178,6.23859813 11.1751402,5.47752336 13.4809346,5.41934579 C15.5670561,5.36663551 18.8607477,5.53556075 21.233271,8.21537383" id="Fill-9" fill="#FFFFFE"></path>
                </g>
            </g>
        </g>
    </g>
</svg>