<svg xmlns="http://www.w3.org/2000/svg" xmlns:xlink="http://www.w3.org/1999/xlink" width="210" height="118" viewBox="0 0 210 118">
    <defs>
        <linearGradient id="b" x1="50%" x2="50%" y1="0%" y2="100%">
            <stop offset="0%" stop-color="#F8F8F8"/>
            <stop offset="100%" stop-color="#EEE"/>
        </linearGradient>
        <rect id="a" width="210" height="118" rx="2"/>
        <filter id="c" width="116.5%" height="113%" x="-8.2%" y="-4.6%" filterUnits="objectBoundingBox">
            <feOffset dy="2" in="SourceAlpha" result="shadowOffsetOuter1"/>
            <feGaussianBlur in="shadowOffsetOuter1" result="shadowBlurOuter1" stdDeviation="2"/>
            <feColorMatrix in="shadowBlurOuter1" result="shadowMatrixOuter1" values="0 0 0 0 0 0 0 0 0 0 0 0 0 0 0 0 0 0 0.5 0"/>
            <feMerge>
                <feMergeNode in="shadowMatrixOuter1"/>
                <feMergeNode in="SourceGraphic"/>
            </feMerge>
        </filter>
        <linearGradient id="d" x1="100%" x2="0%" y1="0%" y2="104.901%">
            <stop offset="0%" stop-color="#CCC"/>
            <stop offset="19.948%" stop-color="#FFF"/>
            <stop offset="100%" stop-color="#F0F0F0"/>
        </linearGradient>
    </defs>
    <g fill="none" fill-rule="evenodd">
        <use fill="url(#b)" xlink:href="#a"/>
        <g filter="url(#c)" transform="translate(66 3)">
            <path fill="url(#d)" d="M1.5.5C.673.5 0 1.173 0 2v104c0 .827.673 1.5 1.5 1.5H83c.827 0 1.5-.673 1.5-1.5V27c0-.972-.58-2.373-1.268-3.06L61.061 1.768C60.373 1.081 58.972.5 58 .5H1.5z"/>
            <path fill="#979797" d="M59.667 2v21.333c0 1.1.9 2 2 2H83c1.1 0 1.364-.637.586-1.414L61.08 1.414c-.302-.302-.583-.447-.813-.447-.363 0-.601.36-.601 1.033z"/>
        </g>
        <g opacity=".6">
            <path fill="#898989" d="M117 59h14.627L109 81.627 86.373 59H101V43h16v16z"/>
        </g>
    </g>
</svg>
