<svg xmlns="http://www.w3.org/2000/svg" xmlns:xlink="http://www.w3.org/1999/xlink" width="35" height="46" viewBox="0 0 35 46">
    <defs>
        <path id="b" d="M18.5 18.94v-6.857A4.585 4.585 0 0 1 23.083 7.5a4.585 4.585 0 0 1 4.584 4.583v6.857a8.224 8.224 0 0 0 3.666-6.857 8.239 8.239 0 0 0-8.25-8.25 8.239 8.239 0 0 0-8.25 8.25A8.224 8.224 0 0 0 18.5 18.94zm18.04 8.488l-8.323-4.143a2.582 2.582 0 0 0-.99-.202h-1.394v-11a2.746 2.746 0 0 0-2.75-2.75 2.746 2.746 0 0 0-2.75 2.75v19.69l-6.288-1.32c-.147-.018-.275-.055-.44-.055-.568 0-1.082.239-1.448.605l-1.449 1.467 9.057 9.057a2.76 2.76 0 0 0 1.943.806h12.449c1.375 0 2.438-1.008 2.64-2.346l1.375-9.662c.018-.128.036-.257.036-.367a2.747 2.747 0 0 0-1.668-2.53z"/>
        <filter id="a" width="150.9%" height="136.4%" x="-25.5%" y="-13%" filterUnits="objectBoundingBox">
            <feOffset dy="2" in="SourceAlpha" result="shadowOffsetOuter1"/>
            <feGaussianBlur in="shadowOffsetOuter1" result="shadowBlurOuter1" stdDeviation="2"/>
            <feColorMatrix in="shadowBlurOuter1" values="0 0 0 0 0 0 0 0 0 0 0 0 0 0 0 0 0 0 0.5 0"/>
        </filter>
    </defs>
    <g fill="none" fill-rule="evenodd">
        <path d="M-7-2h48v48H-7z"/>
        <g transform="translate(-7 -2)">
            <use fill="#000" filter="url(#a)" xlink:href="#b"/>
            <use fill="#FFF" xlink:href="#b"/>
        </g>
    </g>
</svg>
