<svg xmlns="http://www.w3.org/2000/svg" xmlns:xlink="http://www.w3.org/1999/xlink" width="43" height="42" viewBox="0 0 43 42">
    <defs>
        <path id="b" d="M31 28h-1.58l-.56-.54C30.82 25.18 32 22.22 32 19c0-7.18-5.82-13-13-13S6 11.82 6 19s5.82 13 13 13c3.22 0 6.18-1.18 8.46-3.14l.54.56V31l10 9.98L40.98 38 31 28zm-12 0c-4.98 0-9-4.02-9-9s4.02-9 9-9 9 4.02 9 9-4.02 9-9 9zm5-8v-2h-4v-4h-2v4h-4v2h4v4h2v-4h4z"/>
        <filter id="a" width="140%" height="140%" x="-20%" y="-14.3%" filterUnits="objectBoundingBox">
            <feOffset dy="2" in="SourceAlpha" result="shadowOffsetOuter1"/>
            <feGaussianBlur in="shadowOffsetOuter1" result="shadowBlurOuter1" stdDeviation="2"/>
            <feColorMatrix in="shadowBlurOuter1" values="0 0 0 0 0 0 0 0 0 0 0 0 0 0 0 0 0 0 0.5 0"/>
        </filter>
    </defs>
    <g fill="none" fill-rule="evenodd">
        <path d="M-2-4h48v48H-2z"/>
        <g transform="translate(-2 -4)">
            <use fill="#000" filter="url(#a)" xlink:href="#b"/>
            <use fill="#FFF" xlink:href="#b"/>
        </g>
    </g>
</svg>
