<?xml version="1.0" encoding="utf-8"?>
<!-- Generator: Adobe Illustrator 22.0.0, SVG Export Plug-In . SVG Version: 6.00 Build 0)  -->
<svg version="1.1" id="Layer_1" xmlns="http://www.w3.org/2000/svg" xmlns:xlink="http://www.w3.org/1999/xlink" x="0px" y="0px"
	 viewBox="0 0 46 46" style="enable-background:new 0 0 46 46;" xml:space="preserve">
<style type="text/css">
	.st0{fill:none;}
	.st1{filter:url(#a);}
	.st2{fill:#FFFFFF;}
	.st3{filter:url(#c);}
	.st4{fill:none;stroke:#FFFFFF;stroke-width:2;}
</style>
<filter  filterUnits="objectBoundingBox" height="144.4%" id="c" width="144.4%" x="-22.2%" y="-16.7%">
	<feMorphology  in="SourceAlpha" operator="dilate" radius="1" result="shadowSpreadOuter1"></feMorphology>
	<feOffset  dy="2" in="shadowSpreadOuter1" result="shadowOffsetOuter1"></feOffset>
	<feMorphology  in="SourceAlpha" operator="erode" radius="1" result="shadowInner"></feMorphology>
	<feOffset  dy="2" in="shadowInner" result="shadowInner"></feOffset>
	<feComposite  in="shadowOffsetOuter1" in2="shadowInner" operator="out" result="shadowOffsetOuter1"></feComposite>
	<feGaussianBlur  in="shadowOffsetOuter1" result="shadowBlurOuter1" stdDeviation="2"></feGaussianBlur>
	<feColorMatrix  in="shadowBlurOuter1" values="0 0 0 0 0 0 0 0 0 0 0 0 0 0 0 0 0 0 0.5 0"></feColorMatrix>
</filter>
<filter  filterUnits="objectBoundingBox" height="177.8%" id="a" width="216.7%" x="-58.3%" y="-27.8%">
	<feOffset  dy="2" in="SourceAlpha" result="shadowOffsetOuter1"></feOffset>
	<feGaussianBlur  in="shadowOffsetOuter1" result="shadowBlurOuter1" stdDeviation="2"></feGaussianBlur>
	<feColorMatrix  in="shadowBlurOuter1" values="0 0 0 0 0 0 0 0 0 0 0 0 0 0 0 0 0 0 0.5 0"></feColorMatrix>
</filter>
<g>
	<path class="st0" d="M-1-3h48v48H-1V-3z"/>
	<g transform="translate(5 3)">
		<g class="st1">
			<path id="b_2_" d="M20.1,14.6L14,10v18l6.1-4.6L26,19L20.1,14.6z M20.1,14.6L14,10v18l6.1-4.6L26,19L20.1,14.6z M20.1,14.6L14,10
				v18l6.1-4.6L26,19L20.1,14.6z"/>
		</g>
		<g>
			<path id="b_1_" class="st2" d="M20.1,14.6L14,10v18l6.1-4.6L26,19L20.1,14.6z M20.1,14.6L14,10v18l6.1-4.6L26,19L20.1,14.6z
				 M14,10v18l12-9L14,10z"/>
		</g>
	</g>
	<g transform="translate(5 3)">
		<g class="st3">
			<circle id="d_2_" cx="18" cy="18" r="18"/>
		</g>
		<g>
			<circle id="d_1_" class="st4" cx="18" cy="18" r="18"/>
		</g>
	</g>
</g>
</svg>
